<svg xmlns="http://www.w3.org/2000/svg" viewBox="0 0 1600 900" role="img" aria-labelledby="title desc">
  <title id="title">DONE RITE Creator OS smoked-glass One-Click console</title>
  <desc id="desc">A wet smoked-glass control room with a luminous cross, chrome framing, and eight integrated rim-lit glass controls.</desc>
  <defs>
    <linearGradient id="smoke" x1="0" y1="0" x2="1" y2="1"><stop stop-color="#020608"/><stop offset=".48" stop-color="#14232b"/><stop offset="1" stop-color="#05090c"/></linearGradient>
    <linearGradient id="glass" x1="0" y1="0" x2="0" y2="1"><stop stop-color="#38505c" stop-opacity=".68"/><stop offset=".32" stop-color="#14232b" stop-opacity=".78"/><stop offset="1" stop-color="#050b0f" stop-opacity=".93"/></linearGradient>
    <linearGradient id="gold"><stop stop-color="#fff"/><stop offset=".3" stop-color="#fff0ae"/><stop offset=".58" stop-color="#e0ae40"/><stop offset=".82" stop-color="#fff"/><stop offset="1" stop-color="#bc7f19"/></linearGradient>
    <linearGradient id="chrome"><stop stop-color="#eafbff"/><stop offset=".28" stop-color="#4d626d"/><stop offset=".5" stop-color="#c5edf9"/><stop offset=".76" stop-color="#263941"/><stop offset="1" stop-color="#a8def1"/></linearGradient>
    <radialGradient id="drop" cx="30%" cy="22%"><stop stop-color="#fff" stop-opacity=".8"/><stop offset=".2" stop-color="#e6faff" stop-opacity=".18"/><stop offset=".78" stop-color="#04090c" stop-opacity=".2"/><stop offset="1" stop-color="#aee5f8" stop-opacity=".22"/></radialGradient>
    <filter id="blueGlow" x="-80%" y="-80%" width="260%" height="260%"><feGaussianBlur stdDeviation="10" result="b"/><feMerge><feMergeNode in="b"/><feMergeNode in="SourceGraphic"/></feMerge></filter>
    <filter id="goldGlow" x="-80%" y="-80%" width="260%" height="260%"><feGaussianBlur stdDeviation="9" result="b"/><feMerge><feMergeNode in="b"/><feMergeNode in="SourceGraphic"/></feMerge></filter>
    <filter id="dropShadow" x="-80%" y="-80%" width="260%" height="260%"><feDropShadow dx="3" dy="6" stdDeviation="5" flood-color="#000" flood-opacity=".75"/></filter>
  </defs>
  <rect width="1600" height="900" fill="url(#smoke)"/>
  <ellipse cx="800" cy="-90" rx="520" ry="360" fill="#72d4ff" fill-opacity=".10"/>
  <path d="M650 0 510 380h180L760 0zm245 0-70 390h180L980 0z" fill="#fff0b3" opacity=".055"/>
  <path d="M160 0 133 65l31 34-61 75 26 45-73 112M1440 0l27 65-31 34 61 75-26 45 73 112" fill="none" stroke="#4bc7ff" stroke-width="7" stroke-linecap="round" stroke-linejoin="round" filter="url(#blueGlow)"/>
  <rect x="48" y="42" width="1504" height="812" rx="46" fill="#0b151a" fill-opacity=".64" stroke="url(#chrome)" stroke-width="8"/>
  <rect x="62" y="56" width="1476" height="784" rx="36" fill="none" stroke="#d8f7ff" stroke-opacity=".15" stroke-width="2"/>
  <text x="800" y="92" text-anchor="middle" fill="#ffe7a5" font-family="Arial,Helvetica,sans-serif" font-size="18" font-weight="800" letter-spacing="10">FAITH • INTEGRITY • SERVICE • EXCELLENCE</text>
  <text x="800" y="146" text-anchor="middle" fill="#f4fbff" font-family="Arial Black,Arial,sans-serif" font-size="52" font-weight="900" letter-spacing="5">DONE <tspan fill="#ffe4a0">RITE</tspan> CREATOR OS</text>
  <text x="800" y="190" text-anchor="middle" fill="#65ceff" font-family="Arial,Helvetica,sans-serif" font-size="27" font-weight="800" letter-spacing="8">ONE-CLICK WET-GLASS CONSOLE</text>
  <g aria-label="workflow buttons" font-family="Arial,Helvetica,sans-serif" text-anchor="middle" filter="url(#dropShadow)">
    <g transform="translate(205 218)"><rect width="139" height="132" rx="20" fill="url(#glass)" stroke="#ffe5a0" stroke-width="4"/><path d="M12 12h115" stroke="#fff" stroke-opacity=".3"/><text x="69.5" y="48" fill="#ffe5a0" font-size="31">✚</text><text x="69.5" y="88" fill="#fff" font-size="18" font-weight="900">CREATE</text><text x="69.5" y="110" fill="#b6ccd6" font-size="11">BEGIN HERE</text></g>
    <g transform="translate(354 218)"><rect width="139" height="132" rx="20" fill="url(#glass)" stroke="#58ccff" stroke-width="4"/><path d="M12 12h115" stroke="#fff" stroke-opacity=".3"/><text x="69.5" y="48" fill="#73d6ff" font-size="31">☁</text><text x="69.5" y="88" fill="#fff" font-size="18" font-weight="900">UPLOAD</text><text x="69.5" y="110" fill="#b6ccd6" font-size="11">RAW CLIPS</text></g>
    <g transform="translate(506 218)"><rect width="139" height="132" rx="20" fill="url(#glass)" stroke="#58ccff" stroke-width="4"/><path d="M12 12h115" stroke="#fff" stroke-opacity=".3"/><text x="69.5" y="49" fill="#73d6ff" font-size="32" font-weight="900">T</text><text x="69.5" y="88" fill="#fff" font-size="18" font-weight="900">TEXT</text><text x="69.5" y="110" fill="#b6ccd6" font-size="11">SCRIPT TOOLS</text></g>
    <g transform="translate(656 218)"><rect width="139" height="132" rx="20" fill="url(#glass)" stroke="#ffe5a0" stroke-width="4"/><path d="M12 12h115" stroke="#fff" stroke-opacity=".3"/><circle cx="69.5" cy="43" r="19" fill="#ffe5a0"/><rect x="64" y="57" width="11" height="17" rx="5" fill="#ffe5a0"/><text x="69.5" y="88" fill="#fff" font-size="15" font-weight="900">VOICEOVER</text><text x="69.5" y="110" fill="#b6ccd6" font-size="11">VOICE TOOLS</text></g>
    <g transform="translate(808 218)"><rect width="139" height="132" rx="20" fill="url(#glass)" stroke="#58ccff" stroke-width="4"/><path d="M12 12h115" stroke="#fff" stroke-opacity=".3"/><text x="69.5" y="50" fill="#73d6ff" font-size="34">✂</text><text x="69.5" y="88" fill="#fff" font-size="15" font-weight="900">AUTO TRIM</text><text x="69.5" y="110" fill="#b6ccd6" font-size="11">REVIEW CUTS</text></g>
    <g transform="translate(958 218)"><rect width="139" height="132" rx="20" fill="url(#glass)" stroke="#58ccff" stroke-width="4"/><path d="M12 12h115" stroke="#fff" stroke-opacity=".3"/><text x="69.5" y="49" fill="#73d6ff" font-size="32">▥</text><text x="69.5" y="88" fill="#fff" font-size="18" font-weight="900">SFX</text><text x="69.5" y="110" fill="#b6ccd6" font-size="11">SOUND</text></g>
    <g transform="translate(1110 218)"><rect width="139" height="132" rx="20" fill="url(#glass)" stroke="#ffe5a0" stroke-width="4"/><path d="M12 12h115" stroke="#fff" stroke-opacity=".3"/><text x="69.5" y="49" fill="#ffe5a0" font-size="32">⚙</text><text x="69.5" y="88" fill="#fff" font-size="18" font-weight="900">RENDER</text><text x="69.5" y="110" fill="#b6ccd6" font-size="11">BUILD VIDEO</text></g>
    <g transform="translate(1262 218)"><rect width="139" height="132" rx="20" fill="url(#glass)" stroke="#ffe5a0" stroke-width="4"/><path d="M12 12h115" stroke="#fff" stroke-opacity=".3"/><text x="69.5" y="49" fill="#ffe5a0" font-size="34">⇧</text><text x="69.5" y="88" fill="#fff" font-size="18" font-weight="900">EXPORT</text><text x="69.5" y="110" fill="#b6ccd6" font-size="11">SAVE &amp; SHARE</text></g>
  </g>
  <path d="M800 408 928 456v82c0 80-50 126-128 154-78-28-128-74-128-154v-82z" fill="#071116" stroke="#53c9ff" stroke-width="7"/>
  <path d="M775 433h50v61h61v50h-61v105h-50V544h-61v-50h61z" fill="url(#gold)" stroke="#fff" stroke-width="10" filter="url(#goldGlow)"/>
  <path d="m692 526 23-25-8 38 25-8-40 54 12-40-23 9zm216 0-23-25 8 38-25-8 40 54-12-40 23 9z" fill="#4bc9ff" filter="url(#blueGlow)"/>
  <text x="800" y="754" text-anchor="middle" fill="#f2f9fc" font-family="Arial Black,Arial,sans-serif" font-size="34" font-weight="900" letter-spacing="4">CREATE WITH PURPOSE</text>
  <text x="800" y="796" text-anchor="middle" fill="#b3c6cf" font-family="Arial,Helvetica,sans-serif" font-size="22" font-style="italic" letter-spacing="2">Real Reviews. Real Gadgets. Done Rite.</text>
  <g fill="url(#drop)" stroke="#dff7ff" stroke-opacity=".22"><ellipse cx="115" cy="121" rx="15" ry="21"/><ellipse cx="292" cy="73" rx="8" ry="11"/><ellipse cx="472" cy="486" rx="24" ry="31"/><ellipse cx="1083" cy="92" rx="12" ry="17"/><ellipse cx="1458" cy="462" rx="20" ry="27"/><ellipse cx="1242" cy="716" rx="11" ry="15"/><ellipse cx="235" cy="741" rx="27" ry="35"/><ellipse cx="1010" cy="654" rx="7" ry="10"/></g>
</svg>
